<svg width="93" height="93" viewBox="0 0 93 93" fill="none" xmlns="http://www.w3.org/2000/svg">
<rect x="0.5" y="0.234375" width="92" height="92" rx="46" fill="white" fill-opacity="0.5"/>
<path d="M51.3691 62.043C52.5473 60.5376 54.6287 57.1733 54.3931 50.9159C54.257 52.9093 53.3688 54.7766 51.9082 56.14C50.4476 57.5034 48.5236 58.2611 46.5255 58.2598C39.9147 58.6394 36.3933 56.4795 34.8486 55.262C25.541 47.9966 27.125 28.2165 36.8776 17.9402C32.8457 21.4747 28.6043 25.7947 25.8945 28.9364L25.7243 29.1328L21.365 34.2906C16.8225 39.6447 12.7382 46.2817 13.0131 52.8271C13.1309 55.7202 14.0866 58.6133 15.5527 61.3492C26.1563 69.8975 44.431 70.9186 51.3691 62.043Z" fill="#003C4A"/>
<path d="M34.8493 55.2621C36.394 56.4795 39.9154 58.6395 46.5263 58.2599C44.435 58.2599 42.4292 57.43 40.9492 55.9525C39.4692 54.4749 38.636 52.4705 38.6325 50.3792C38.6325 50.2614 38.6456 50.1567 38.6456 50.0519C38.5016 43.9909 40.5176 40.7313 41.6827 39.252C47.9794 31.1881 63.6621 31.2928 74.4227 37.8121C73.5588 36.5946 72.6293 35.4164 71.6868 34.3037L67.3144 29.1329L67.1443 28.9234C61.7116 22.6398 50.1524 11.5781 46.5263 11.5781C44.7459 11.5781 40.9234 14.3665 36.8784 17.9402C27.1257 28.2165 25.5417 47.9967 34.8493 55.2621Z" fill="#00B2D2"/>
<path d="M58.1894 45.5225C56.684 44.3443 53.2935 42.2498 46.9706 42.4985C48.9815 42.6154 50.8716 43.4967 52.2539 44.9617C53.6363 46.4268 54.4062 48.3649 54.4062 50.3792C54.4062 50.5494 54.4062 50.7195 54.3931 50.8897V50.9159C54.6287 57.1733 52.5473 60.5376 51.3691 62.0431C44.431 70.9186 26.1563 69.8975 15.5527 61.3493C17.4771 64.9492 20.2916 68.3136 23.237 71.1543L24.2712 72.1361L25.5017 73.3273C29.8883 77.5461 35.4426 80.3477 41.4425 81.368C47.4425 82.3882 53.6106 81.5798 59.145 79.048C66.1355 68.2743 66.4497 51.9763 58.1894 45.5225Z" fill="#00AEC8"/>
<path d="M74.4221 37.7989C63.6615 31.2797 47.9787 31.175 41.6821 39.2389C40.517 40.7182 38.501 43.9778 38.645 50.0388C38.7327 48.0071 39.6011 46.0876 41.0693 44.6804C42.5374 43.2732 44.492 42.4869 46.5257 42.4854H46.9708C53.2936 42.2367 56.6841 44.3312 58.1896 45.5094C66.4498 51.9632 66.1357 68.2612 59.1452 79.0349C62.2413 77.6143 65.0777 75.6851 67.5364 73.3273L68.78 72.1361L69.8011 71.1542C74.9981 66.1536 79.7632 59.5427 80.0381 52.8271C80.2475 47.6432 77.7341 42.4069 74.4221 37.7989Z" fill="#007290"/>
</svg>
