<svg width="37" height="37" viewBox="0 0 37 37" fill="none" xmlns="http://www.w3.org/2000/svg">
<rect x="0.5" y="0.5" width="36" height="36" rx="18" stroke="black"/>
<path d="M17.3807 25V15.1818H18.8892V25H17.3807ZM18.1477 13.5455C17.8537 13.5455 17.6001 13.4453 17.3871 13.245C17.1783 13.0447 17.0739 12.804 17.0739 12.5227C17.0739 12.2415 17.1783 12.0007 17.3871 11.8004C17.6001 11.6001 17.8537 11.5 18.1477 11.5C18.4418 11.5 18.6932 11.6001 18.902 11.8004C19.1151 12.0007 19.2216 12.2415 19.2216 12.5227C19.2216 12.804 19.1151 13.0447 18.902 13.245C18.6932 13.4453 18.4418 13.5455 18.1477 13.5455Z" fill="#19191D"/>
</svg>
