<svg width="30" height="20" viewBox="0 0 30 20" fill="none" xmlns="http://www.w3.org/2000/svg">
<g filter="url(#filter0_d_1146_108844)">
<g filter="url(#filter1_b_1146_108844)">
<path d="M10.2906 18.2011C14.7973 18.186 18.4385 14.5204 18.4234 10.0136C18.4083 5.50692 14.7426 1.86574 10.2359 1.88085C5.72916 1.89595 2.08797 5.56162 2.10307 10.0683C2.11818 14.5751 5.78384 18.2163 10.2906 18.2011Z" fill="#0756AB" fill-opacity="0.8"/>
</g>
<path opacity="0.2" d="M15.364 15.1101C18.1619 12.2935 18.1479 7.73932 15.3312 4.94142C12.5147 2.14351 7.9605 2.15753 5.1626 4.97411L15.364 15.1101Z" fill="white"/>
<path d="M9.93018 6.81894C10.0397 6.80774 10.1508 6.80201 10.2633 6.80201C12.052 6.80201 13.502 8.25198 13.502 10.0406C13.502 11.4354 12.6202 12.6242 11.3838 13.0802L10.2849 14.6256C12.8073 14.6139 14.8483 12.5656 14.8483 10.0406C14.8483 7.66958 13.0486 5.7189 10.7407 5.48016L9.93018 6.81894Z" fill="white"/>
<path d="M10.1592 5.45621C7.675 5.51151 5.67822 7.54259 5.67822 10.04C5.67822 12.3765 7.4259 14.3048 9.6853 14.589L10.6318 13.2579C10.5108 13.2716 10.3879 13.2787 10.2632 13.2787C8.47459 13.2787 7.02461 11.8287 7.02461 10.04C7.02461 8.60674 7.95572 7.39089 9.24604 6.96439L10.1592 5.45621Z" fill="white"/>
<path d="M11.3835 13.0799C12.6199 12.624 13.5017 11.4351 13.5017 10.0404H14.8481C14.8481 12.5654 12.807 14.6137 10.2847 14.6253L11.3835 13.0799Z" fill="url(#paint0_linear_1146_108844)"/>
<path d="M10.1592 5.45621C7.67501 5.51151 5.67822 7.54259 5.67822 10.04C5.67822 10.04 7.02461 10.0594 7.02461 10.04C7.02461 8.60674 7.95572 7.39089 9.24604 6.96439L10.1592 5.45621Z" fill="url(#paint1_linear_1146_108844)"/>
<path d="M10.255 13.7887L12.5572 10.5467L10.255 11.9054L7.9541 10.5467L10.255 13.7887Z" fill="white"/>
<path opacity="0.1" d="M10.2554 13.7887L12.5576 10.5467L10.2554 11.9054V13.7887Z" fill="#0074F0"/>
<path d="M10.2482 11.4755L12.5618 10.1144L10.2482 6.29305L7.93457 10.1144L10.2482 11.4755Z" fill="url(#paint2_linear_1146_108844)"/>
<path d="M10.2482 11.4755L12.5618 10.1144L10.2482 6.29305L7.93457 10.1144L10.2482 11.4755Z" fill="white"/>
<path opacity="0.1" d="M10.2482 11.4754L7.93457 10.1144L10.2482 6.29305V11.4754Z" fill="#0074F0"/>
<path opacity="0.1" d="M10.2482 11.4747V9.02887L7.93457 10.1135L10.2482 11.4747Z" fill="#0074F0"/>
<path opacity="0.1" d="M10.2476 11.4747V9.02887L12.5611 10.1135L10.2476 11.4747Z" fill="#0074F0"/>
</g>
<g clip-path="url(#clip0_1146_108844)">
<rect x="12.9922" y="1.85417" width="16.375" height="16.375" rx="8.1875" fill="white"/>
<g clip-path="url(#clip1_1146_108844)">
<path d="M20.6465 1.93874C20.5881 1.9925 20.5311 2.04733 20.4716 2.09931C19.5709 2.88924 18.6698 3.67904 17.7684 4.46872C16.9875 5.15302 16.207 5.83732 15.4266 6.52162C15.4116 6.53556 15.4012 6.55384 15.3969 6.57396C15.306 7.06291 15.2158 7.55198 15.1264 8.04117C15.0223 8.60822 14.9183 9.17562 14.8145 9.74337C14.7085 10.3235 14.6023 10.9035 14.4958 11.4833C14.4014 12.0003 14.3064 12.5174 14.2108 13.0346C14.1589 13.3194 14.1071 13.603 14.0554 13.8855L14.0483 13.9179C14.0093 13.8467 13.9775 13.7869 13.9421 13.7285C13.9293 13.7084 13.9206 13.686 13.9166 13.6625C13.9126 13.639 13.9133 13.615 13.9187 13.5918C14.0263 13.015 14.1326 12.438 14.2374 11.8607C14.3379 11.3115 14.4383 10.7622 14.5387 10.213C14.6423 9.64831 14.7458 9.08364 14.8492 8.51897L15.1073 7.11014C15.1901 6.65632 15.2727 6.20214 15.3551 5.7476C15.3609 5.72586 15.3733 5.70646 15.3905 5.69206C15.9679 5.18578 16.5452 4.67985 17.1226 4.17428L19.0132 2.5173C19.1754 2.37488 19.3368 2.23247 19.5 2.09006C19.52 2.07196 19.5445 2.05965 19.5709 2.05445C19.8985 1.99496 20.2297 1.95749 20.5622 1.9423C20.5742 1.94076 20.586 1.93838 20.5976 1.93518L20.6465 1.93874Z" fill="#FFD9C2"/>
<path d="M19.3871 17.7862C19.1994 17.7392 19.0175 17.6926 18.8348 17.6484C18.805 17.6409 18.8011 17.6281 18.8061 17.6007C18.9789 16.6615 19.1511 15.7223 19.3227 14.783C19.3818 14.4587 19.4406 14.1344 19.5018 13.8107C19.5082 13.7866 19.5219 13.765 19.5411 13.7491C19.9896 13.3539 20.4395 12.9593 20.8908 12.5653L22.6965 10.9838C23.4813 10.2955 24.2661 9.60714 25.0509 8.9188L28.0137 6.3226C28.02 6.3169 28.0268 6.31227 28.0374 6.30444C28.0459 6.31868 28.054 6.33079 28.0608 6.34396C28.221 6.66761 28.3603 7.00131 28.4778 7.34299C28.484 7.35599 28.4851 7.3708 28.4811 7.3846C28.477 7.3984 28.4681 7.41021 28.4559 7.41776C27.376 8.36291 26.2966 9.30866 25.2177 10.255L22.473 12.6611C21.6297 13.4002 20.7863 14.1397 19.943 14.8795C19.9275 14.8932 19.9167 14.9114 19.9122 14.9315C19.8338 15.3533 19.7563 15.7753 19.6795 16.1976L19.4119 17.6609C19.4034 17.699 19.3963 17.7392 19.3871 17.7862Z" fill="#FFD9C2"/>
<path d="M20.37 17.9172L19.7008 17.8424C19.7157 17.7595 19.7291 17.6847 19.7429 17.6096C19.8491 17.0281 19.9554 16.4465 20.0616 15.865C20.1044 15.6304 20.1469 15.3954 20.1915 15.1608C20.1966 15.1366 20.2089 15.1146 20.2269 15.0978C21.282 14.1721 22.3376 13.2464 23.3936 12.3207L28.5812 7.77272C28.5865 7.76809 28.5922 7.76453 28.6032 7.75598C28.6262 7.84321 28.6496 7.92617 28.6701 8.00948C28.7539 8.3504 28.8161 8.69633 28.8563 9.04518C28.8605 9.06487 28.8591 9.08534 28.8522 9.10424C28.8453 9.12313 28.8332 9.13969 28.8174 9.15199C27.9887 9.87641 27.16 10.6026 26.3316 11.3306L21.1747 15.8522C21.0147 15.9925 20.8543 16.1321 20.6953 16.2734C20.6793 16.2884 20.6683 16.3081 20.6638 16.3296C20.5694 16.8438 20.475 17.358 20.3806 17.8723C20.3781 17.8816 20.3749 17.8937 20.37 17.9172Z" fill="#FFD9C2"/>
<path d="M18.4273 17.5256L17.9192 17.3365C17.9465 17.1856 17.9727 17.0403 17.9992 16.895L18.2605 15.4709C18.37 14.8742 18.4796 14.2775 18.5891 13.6808C18.663 13.2773 18.7372 12.8737 18.8118 12.4702C18.8163 12.4487 18.8273 12.429 18.8433 12.414C19.587 11.7608 20.3313 11.1081 21.076 10.4558L27.2217 5.06757C27.2281 5.06187 27.2348 5.05653 27.2458 5.04763C27.4583 5.32323 27.6524 5.61273 27.8268 5.91422L21.3911 11.5545C20.6723 12.1847 19.9534 12.8144 19.2342 13.4436C19.1874 13.4814 19.1561 13.5351 19.1464 13.5946C19.0253 14.2689 18.9021 14.9427 18.7767 15.6158C18.6705 16.1957 18.5643 16.7758 18.4581 17.3561C18.4489 17.4102 18.4386 17.4647 18.4273 17.5256Z" fill="#FFD9C2"/>
<path d="M28.8906 9.45178C28.8949 9.5682 28.8998 9.67287 28.9023 9.77755C28.911 10.1915 28.8873 10.6056 28.8315 11.0158C28.8241 11.0735 28.8163 11.1312 28.8053 11.1885C28.801 11.2074 28.791 11.2244 28.7766 11.2373C28.3782 11.5876 27.9794 11.9374 27.5803 12.2865L23.5373 15.8308C22.8419 16.4385 22.1475 17.0467 21.454 17.6555C21.4305 17.6756 21.4153 17.7038 21.4115 17.7346C21.4013 17.7976 21.3889 17.8599 21.3761 17.9282H20.6206C20.6503 17.7645 20.6787 17.6078 20.7077 17.449C20.7657 17.1319 20.8248 16.8148 20.8847 16.4977C20.8887 16.4774 20.8989 16.4589 20.9137 16.4447C21.6438 15.8038 22.3741 15.1629 23.1046 14.5221L28.8319 9.50447L28.8906 9.45178Z" fill="#FFD9C2"/>
<path d="M17.4859 17.1439C17.3481 17.0698 17.2136 16.9979 17.0801 16.9242C17.0748 16.9189 17.0707 16.9124 17.0682 16.9052C17.0658 16.8981 17.065 16.8904 17.0659 16.8829C17.1247 16.5554 17.1853 16.2285 17.2451 15.9017L17.5283 14.3458C17.6282 13.7999 17.7283 13.2534 17.8286 12.7063C17.923 12.1841 18.0184 11.6627 18.1147 11.1422C18.1181 11.1116 18.1328 11.0833 18.1557 11.0628C18.8131 10.488 19.4702 9.91236 20.1271 9.33606L26.2233 3.99625L26.2587 3.96635L26.9314 4.64815L26.8839 4.69195L20.8597 9.97194C20.0571 10.6757 19.2538 11.3793 18.4496 12.0829C18.4241 12.1048 18.4076 12.1355 18.4032 12.169C18.2403 13.0636 18.0768 13.9581 17.9125 14.8525L17.4943 17.1232C17.492 17.1303 17.4891 17.1372 17.4859 17.1439Z" fill="#FFD9C2"/>
<path d="M25.0542 3.07057L25.8012 3.5854L23.5948 5.51973C22.8612 6.16249 22.1273 6.80585 21.3932 7.44979L19.362 9.22997C18.8052 9.71797 18.2486 10.2061 17.6923 10.6943C17.6721 10.7128 17.6579 10.737 17.6516 10.7638C17.5588 11.2622 17.4672 11.7607 17.3768 12.2591L17.0656 13.9574C16.9655 14.5069 16.8652 15.0561 16.7647 15.6051L16.5852 16.5864C16.5822 16.5977 16.5787 16.6089 16.5745 16.6198C16.4605 16.539 16.3494 16.461 16.2392 16.3813C16.2348 16.3758 16.2316 16.3695 16.2299 16.3626C16.2282 16.3558 16.228 16.3487 16.2293 16.3418C16.2895 16.0061 16.3504 15.6706 16.412 15.3352C16.4873 14.9241 16.5626 14.5132 16.6379 14.1023C16.7274 13.6145 16.8168 13.1269 16.9063 12.6394C17.0007 12.1222 17.0951 11.605 17.1895 11.0878C17.2695 10.6501 17.3498 10.2126 17.4303 9.77541C17.4361 9.75386 17.4485 9.73469 17.4657 9.72058C17.8906 9.34604 18.3171 8.97208 18.7453 8.59872L24.9905 3.12682L25.0542 3.07057Z" fill="#FFD9C2"/>
<path d="M21.5642 17.9073C21.5631 17.8802 21.5683 17.8533 21.5792 17.8286C21.5901 17.8039 21.6066 17.7821 21.6272 17.7648C22.5294 16.9761 23.4307 16.1867 24.3312 15.3965L28.6981 11.5695L28.7473 11.5278C28.7282 11.6165 28.7119 11.6934 28.6949 11.7696C28.4861 12.6621 28.1251 13.5116 27.6281 14.2803C27.6121 14.3053 27.5927 14.328 27.5704 14.3476C26.7061 15.1072 25.8413 15.8653 24.9763 16.622C24.7851 16.7893 24.5939 16.9564 24.4027 17.1233C24.3746 17.1489 24.3431 17.1706 24.3092 17.1877C23.6584 17.4949 22.968 17.7089 22.2582 17.8236C22.0408 17.8592 21.8209 17.8798 21.6021 17.9069C21.5895 17.9078 21.5768 17.9079 21.5642 17.9073Z" fill="#FFD9C2"/>
<path d="M24.4264 2.73733L17.4667 8.83834C17.2876 8.99547 17.1085 9.15272 16.9296 9.31008C16.9153 9.323 16.9053 9.34003 16.9009 9.35886C16.748 10.1896 16.5955 11.0198 16.4435 11.8493C16.2735 12.7776 16.1037 13.7057 15.934 14.6335C15.8561 15.0586 15.7784 15.4836 15.701 15.9085C15.699 15.9182 15.6966 15.9278 15.6936 15.9373C15.683 15.9295 15.6741 15.9241 15.6667 15.9174C15.5959 15.854 15.5314 15.7874 15.4596 15.728C15.4423 15.7144 15.4296 15.6958 15.4233 15.6747C15.4169 15.6536 15.4172 15.631 15.4242 15.6101C15.5814 14.7604 15.7374 13.9105 15.8922 13.0606C16.0324 12.2963 16.1727 11.5319 16.3132 10.7673C16.4246 10.1578 16.5359 9.54827 16.6471 8.93874C16.6779 8.76962 16.7087 8.60051 16.7409 8.43175C16.7449 8.4142 16.7542 8.39831 16.7674 8.38617C17.6512 7.61073 18.5352 6.83576 19.4197 6.06127L21.7742 3.99627C22.3735 3.47124 22.9728 2.94585 23.5721 2.4201C23.5808 2.4104 23.5924 2.40377 23.6051 2.4012C23.6179 2.39864 23.6311 2.40027 23.6429 2.40586C23.9096 2.50253 24.1711 2.61317 24.4264 2.73733Z" fill="#FFD9C2"/>
<path d="M14.8446 15.0689C14.7738 14.9806 14.7111 14.9012 14.6499 14.8197C14.6413 14.8039 14.6391 14.7855 14.6435 14.7681C14.6888 14.5149 14.7356 14.2618 14.7819 14.009C14.8716 13.5212 14.961 13.0335 15.05 12.5457C15.1415 12.0439 15.2334 11.5422 15.3254 11.0404L15.5771 9.66539C15.6664 9.17905 15.7557 8.69247 15.8452 8.20565C15.9113 7.84415 15.9771 7.48195 16.0427 7.11903C16.0478 7.08141 16.0666 7.04704 16.0955 7.02255C16.9023 6.31688 17.7087 5.61063 18.5148 4.90378L20.3286 3.31373C20.8221 2.88127 21.3157 2.44845 21.8092 2.01528C21.8181 2.00549 21.8291 1.99803 21.8415 1.99356C21.8538 1.98909 21.8671 1.98775 21.8801 1.98964C22.1654 2.0402 22.4508 2.09016 22.7362 2.13953C22.743 2.14118 22.7497 2.14357 22.756 2.14665C22.7443 2.15769 22.7347 2.16766 22.7248 2.17656L17.8173 6.47888C17.2767 6.95359 16.7359 7.42712 16.1946 7.89946C16.1665 7.92282 16.148 7.95578 16.1426 7.99203C16.0264 8.63289 15.9094 9.27292 15.7913 9.91212C15.6766 10.5392 15.5624 11.1663 15.4486 11.7934C15.3089 12.5579 15.1686 13.3223 15.0276 14.0866C14.9698 14.4011 14.9123 14.7156 14.8552 15.0301C14.8527 15.0401 14.8496 15.049 14.8446 15.0689Z" fill="#FFD9C2"/>
<path d="M13.3352 12.2659C13.3095 12.1915 13.2899 12.1152 13.2765 12.0377C13.2704 11.9789 13.2913 11.9173 13.3023 11.8572C13.4177 11.2255 13.5334 10.5938 13.6493 9.96198C13.7612 9.35292 13.8729 8.74363 13.9846 8.1341C14.0962 7.52457 14.2082 6.91243 14.3206 6.29767C14.3831 5.95374 14.4463 5.60958 14.51 5.26517C14.5154 5.23942 14.5263 5.21514 14.5419 5.19397C15.2505 4.22527 16.1669 3.42944 17.2231 2.8655C17.2369 2.85802 17.2511 2.85126 17.2649 2.84449C17.2686 2.84419 17.2722 2.84419 17.2759 2.84449C17.2561 2.8623 17.2405 2.8776 17.2228 2.8922C16.3761 3.63442 15.5294 4.37651 14.6828 5.11849C14.6599 5.13703 14.6447 5.1634 14.6399 5.19254C14.5094 5.91102 14.3778 6.62938 14.2452 7.34762C14.1125 8.06586 13.9813 8.78481 13.8514 9.50448C13.7256 10.1928 13.5995 10.8804 13.473 11.5673C13.4321 11.7895 13.3915 12.0117 13.3512 12.2338C13.349 12.2445 13.3459 12.2552 13.3434 12.2655L13.3352 12.2659Z" fill="#FFD9C2"/>
<path d="M24.8257 16.9118C25.6485 16.1909 26.4712 15.4698 27.2938 14.7485C26.6347 15.6391 25.793 16.3768 24.8257 16.9118Z" fill="#FFD9C2"/>
<g clip-path="url(#clip2_1146_108844)" filter="url(#filter2_d_1146_108844)">
<path d="M21.0872 4.28334L21.0112 4.54161V12.0361L21.0872 12.112L24.5661 10.0556L21.0872 4.28334Z" fill="#BA4E0F"/>
<path d="M21.0873 4.28329L17.6084 10.0556L21.0873 12.112V8.47434V4.28329Z" fill="url(#paint3_linear_1146_108844)"/>
<path d="M21.0873 12.7707L21.0444 12.8229V15.4926L21.0873 15.6177L24.5682 10.7154L21.0873 12.7707Z" fill="#582305"/>
<path d="M21.0873 15.6176V12.7706L17.6084 10.7153L21.0873 15.6176Z" fill="url(#paint4_linear_1146_108844)"/>
<path d="M21.0869 12.112L24.5657 10.0556L21.0869 8.47441V12.112Z" fill="#2A1403"/>
<path d="M17.6084 10.0556L21.0872 12.112V8.47441L17.6084 10.0556Z" fill="#582305"/>
</g>
</g>
</g>
<rect x="13.1946" y="2.05662" width="15.9701" height="15.9701" rx="7.98506" stroke="#FFB184" stroke-width="0.404888"/>
<defs>
<filter id="filter0_d_1146_108844" x="0.425531" y="0.822826" width="18.644" height="18.644" filterUnits="userSpaceOnUse" color-interpolation-filters="sRGB">
<feFlood flood-opacity="0" result="BackgroundImageFix"/>
<feColorMatrix in="SourceAlpha" type="matrix" values="0 0 0 0 0 0 0 0 0 0 0 0 0 0 0 0 0 0 127 0" result="hardAlpha"/>
<feOffset dx="-0.515673" dy="0.103135"/>
<feGaussianBlur stdDeviation="0.56724"/>
<feComposite in2="hardAlpha" operator="out"/>
<feColorMatrix type="matrix" values="0 0 0 0 0.0065989 0 0 0 0 0.0481723 0 0 0 0 0.128874 0 0 0 0.24 0"/>
<feBlend mode="normal" in2="BackgroundImageFix" result="effect1_dropShadow_1146_108844"/>
<feBlend mode="normal" in="SourceGraphic" in2="effect1_dropShadow_1146_108844" result="shape"/>
</filter>
<filter id="filter1_b_1146_108844" x="1.66944" y="1.44721" width="17.1875" height="17.1876" filterUnits="userSpaceOnUse" color-interpolation-filters="sRGB">
<feFlood flood-opacity="0" result="BackgroundImageFix"/>
<feGaussianBlur in="BackgroundImageFix" stdDeviation="0.216796"/>
<feComposite in2="SourceAlpha" operator="in" result="effect1_backgroundBlur_1146_108844"/>
<feBlend mode="normal" in="SourceGraphic" in2="effect1_backgroundBlur_1146_108844" result="shape"/>
</filter>
<filter id="filter2_d_1146_108844" x="11.5346" y="-1.78988" width="19.1066" height="23.4835" filterUnits="userSpaceOnUse" color-interpolation-filters="sRGB">
<feFlood flood-opacity="0" result="BackgroundImageFix"/>
<feColorMatrix in="SourceAlpha" type="matrix" values="0 0 0 0 0 0 0 0 0 0 0 0 0 0 0 0 0 0 127 0" result="hardAlpha"/>
<feOffset/>
<feGaussianBlur stdDeviation="3.03666"/>
<feColorMatrix type="matrix" values="0 0 0 0 1 0 0 0 0 0.505882 0 0 0 0 0.231373 0 0 0 1 0"/>
<feBlend mode="normal" in2="BackgroundImageFix" result="effect1_dropShadow_1146_108844"/>
<feBlend mode="normal" in="SourceGraphic" in2="effect1_dropShadow_1146_108844" result="shape"/>
</filter>
<linearGradient id="paint0_linear_1146_108844" x1="7.24434" y1="15.7853" x2="12.2939" y2="12.4775" gradientUnits="userSpaceOnUse">
<stop stop-color="#1A82FF" stop-opacity="0.5"/>
<stop offset="1" stop-color="white"/>
</linearGradient>
<linearGradient id="paint1_linear_1146_108844" x1="12.7377" y1="3.34572" x2="7.90625" y2="6.83658" gradientUnits="userSpaceOnUse">
<stop stop-color="#1A82FF" stop-opacity="0.5"/>
<stop offset="1" stop-color="white"/>
</linearGradient>
<linearGradient id="paint2_linear_1146_108844" x1="5.32603" y1="7.67686" x2="9.3793" y2="10.1504" gradientUnits="userSpaceOnUse">
<stop stop-color="#1C313F"/>
<stop offset="1" stop-color="white"/>
</linearGradient>
<linearGradient id="paint3_linear_1146_108844" x1="21.0873" y1="4.28329" x2="15.2769" y2="6.86528" gradientUnits="userSpaceOnUse">
<stop stop-color="#FF813B"/>
<stop offset="1" stop-color="#82889D"/>
</linearGradient>
<linearGradient id="paint4_linear_1146_108844" x1="21.0873" y1="10.7153" x2="16.4598" y2="13.9991" gradientUnits="userSpaceOnUse">
<stop stop-color="#FF813B"/>
<stop offset="1" stop-color="#82889D"/>
</linearGradient>
<clipPath id="clip0_1146_108844">
<rect x="12.9922" y="1.85417" width="16.375" height="16.375" rx="8.1875" fill="white"/>
</clipPath>
<clipPath id="clip1_1146_108844">
<rect width="20.2444" height="20.2444" fill="white" transform="translate(10.9678 -0.170242)"/>
</clipPath>
<clipPath id="clip2_1146_108844">
<rect width="6.9598" height="11.3369" fill="white" transform="translate(17.6079 4.28343)"/>
</clipPath>
</defs>
</svg>
