<svg width="30" height="17" viewBox="0 0 30 17" fill="none" xmlns="http://www.w3.org/2000/svg">
<path d="M0.578125 8.375C0.578125 3.85317 4.24379 0.1875 8.76562 0.1875C13.2875 0.1875 16.9531 3.85317 16.9531 8.375C16.9531 12.8968 13.2875 16.5625 8.76562 16.5625C4.24379 16.5625 0.578125 12.8968 0.578125 8.375Z" fill="white"/>
<g clip-path="url(#clip0_1146_108828)">
<path d="M8.76455 2.23438L8.68457 2.49862V10.1664L8.76455 10.244L12.4263 8.14011L8.76455 2.23438Z" fill="#343434"/>
<path d="M8.76428 2.23438L5.10254 8.14011L8.76428 10.244V6.52232V2.23438Z" fill="#8C8C8C"/>
<path d="M8.76431 10.9179L8.71924 10.9713V13.7028L8.76431 13.8307L12.4283 8.81511L8.76431 10.9179Z" fill="#3C3C3B"/>
<path d="M8.76428 13.8307V10.9179L5.10254 8.81505L8.76428 13.8307Z" fill="#8C8C8C"/>
<path d="M8.76416 10.244L12.4258 8.14014L8.76416 6.52235V10.244Z" fill="#141414"/>
<path d="M5.10254 8.14011L8.76422 10.244V6.52232L5.10254 8.14011Z" fill="#393939"/>
</g>
<g clip-path="url(#clip1_1146_108828)">
<rect x="12.8594" y="0.1875" width="16.375" height="16.375" rx="8.1875" fill="white"/>
<g clip-path="url(#clip2_1146_108828)">
<path d="M20.5137 0.272085C20.4553 0.325846 20.3982 0.380676 20.3388 0.432657C19.438 1.22258 18.537 2.01238 17.6355 2.80207C16.8547 3.48636 16.0742 4.17066 15.2938 4.85496C15.2788 4.8689 15.2684 4.88719 15.2641 4.9073C15.1732 5.39625 15.083 5.88533 14.9936 6.37452C14.8895 6.94156 14.7855 7.50896 14.6817 8.07672C14.5757 8.65682 14.4695 9.2368 14.363 9.81666C14.2686 10.3336 14.1736 10.8507 14.078 11.3679C14.0261 11.6527 13.9742 11.9364 13.9226 12.2188L13.9155 12.2512C13.8765 12.18 13.8447 12.1202 13.8093 12.0618C13.7965 12.0418 13.7878 12.0193 13.7838 11.9958C13.7798 11.9724 13.7805 11.9483 13.7859 11.9251C13.8935 11.3483 13.9997 10.7713 14.1045 10.1941C14.2051 9.64481 14.3055 9.09557 14.4058 8.54633C14.5095 7.98166 14.613 7.41699 14.7164 6.85232L14.9745 5.44349C15.0573 4.98966 15.1399 4.53548 15.2223 4.08094C15.2281 4.0592 15.2405 4.03981 15.2577 4.0254C15.8351 3.51912 16.4124 3.0132 16.9897 2.50763L18.8804 0.850641C19.0426 0.708227 19.204 0.565813 19.3672 0.423399C19.3872 0.4053 19.4117 0.392994 19.438 0.387796C19.7657 0.328301 20.0968 0.290834 20.4294 0.275645C20.4414 0.274099 20.4532 0.271719 20.4648 0.268524L20.5137 0.272085Z" fill="#FFD9C2"/>
<path d="M19.2543 16.1195C19.0666 16.0725 18.8846 16.0259 18.702 15.9818C18.6722 15.9743 18.6683 15.9615 18.6733 15.934C18.8461 14.9948 19.0182 14.0556 19.1898 13.1164C19.249 12.792 19.3077 12.4677 19.369 12.1441C19.3754 12.1199 19.3891 12.0984 19.4083 12.0825C19.8568 11.6873 20.3067 11.2927 20.758 10.8987L22.5636 9.31715C23.3485 8.62881 24.1333 7.94048 24.9181 7.25215L27.8809 4.65594C27.8872 4.65025 27.894 4.64562 27.9046 4.63779C27.9131 4.65203 27.9212 4.66413 27.928 4.6773C28.0882 5.00095 28.2275 5.33466 28.345 5.67634C28.3512 5.68933 28.3523 5.70415 28.3483 5.71794C28.3442 5.73174 28.3353 5.74355 28.3231 5.7511C27.2432 6.69626 26.1638 7.642 25.0849 8.58834L22.3402 10.9944C21.4969 11.7336 20.6535 12.473 19.8101 13.2129C19.7947 13.2265 19.7839 13.2447 19.7793 13.2649C19.701 13.6866 19.6234 14.1087 19.5467 14.5309L19.2791 15.9942C19.2706 16.0323 19.2635 16.0725 19.2543 16.1195Z" fill="#FFD9C2"/>
<path d="M20.2371 16.2506L19.568 16.1758C19.5828 16.0928 19.5963 16.0181 19.6101 15.9429C19.7163 15.3614 19.8225 14.7799 19.9288 14.1984C19.9716 13.9637 20.0141 13.7288 20.0587 13.4941C20.0638 13.47 20.0761 13.448 20.0941 13.4311C21.1492 12.5054 22.2048 11.5797 23.2608 10.654L28.4484 6.10606C28.4537 6.10143 28.4594 6.09787 28.4704 6.08932C28.4934 6.17655 28.5168 6.25951 28.5373 6.34282C28.6211 6.68374 28.6833 7.02968 28.7235 7.37853C28.7277 7.39821 28.7263 7.41868 28.7194 7.43758C28.7125 7.45648 28.7004 7.47303 28.6846 7.48534C27.8558 8.20975 27.0272 8.93594 26.1987 9.66391L21.0419 14.1856C20.8819 14.3258 20.7215 14.4654 20.5625 14.6067C20.5465 14.6218 20.5355 14.6414 20.531 14.663C20.4366 15.1771 20.3422 15.6913 20.2478 16.2057C20.2453 16.2149 20.2421 16.2271 20.2371 16.2506Z" fill="#FFD9C2"/>
<path d="M18.2945 15.8589L17.7864 15.6699C17.8137 15.5189 17.8399 15.3736 17.8664 15.2284L18.1277 13.8042C18.2372 13.2075 18.3467 12.6108 18.4563 12.0141C18.5301 11.6106 18.6044 11.2071 18.679 10.8036C18.6834 10.782 18.6945 10.7624 18.7105 10.7473C19.4542 10.0941 20.1985 9.44139 20.9432 8.78914L27.0889 3.40091C27.0952 3.39522 27.102 3.38988 27.1129 3.38098C27.3255 3.65657 27.5196 3.94607 27.6939 4.24756L21.2583 9.88786C20.5395 10.518 19.8206 11.1477 19.1014 11.777C19.0546 11.8147 19.0233 11.8685 19.0136 11.9279C18.8925 12.6023 18.7693 13.276 18.6439 13.9491C18.5377 14.529 18.4315 15.1091 18.3253 15.6894C18.3161 15.7436 18.3058 15.798 18.2945 15.8589Z" fill="#FFD9C2"/>
<path d="M28.7578 7.78512C28.7621 7.90154 28.767 8.00622 28.7695 8.11089C28.7782 8.52488 28.7545 8.93891 28.6987 9.34918C28.6913 9.40686 28.6835 9.46453 28.6725 9.52186C28.6682 9.54069 28.6581 9.55773 28.6438 9.57063C28.2454 9.92097 27.8466 10.2707 27.4475 10.6199L23.4045 14.1642C22.7091 14.7718 22.0147 15.38 21.3212 15.9889C21.2977 16.0089 21.2825 16.0371 21.2787 16.0679C21.2685 16.1309 21.2561 16.1932 21.2433 16.2616H20.4878C20.5175 16.0978 20.5458 15.9412 20.5749 15.7824C20.6329 15.4653 20.6919 15.1482 20.7519 14.831C20.7559 14.8108 20.7661 14.7923 20.7809 14.778C21.511 14.1371 22.2413 13.4963 22.9718 12.8554L28.699 7.83781L28.7578 7.78512Z" fill="#FFD9C2"/>
<path d="M17.353 15.4772C17.2153 15.4032 17.0808 15.3313 16.9473 15.2576C16.9419 15.2522 16.9379 15.2457 16.9354 15.2386C16.933 15.2314 16.9322 15.2238 16.9331 15.2163C16.9919 14.8887 17.0524 14.5619 17.1123 14.235L17.3955 12.6792C17.4954 12.1332 17.5955 11.5867 17.6958 11.0396C17.7902 10.5174 17.8855 9.99609 17.9818 9.47557C17.9853 9.44491 17.9999 9.41663 18.0229 9.39617C18.6803 8.82129 19.3374 8.2457 19.9943 7.6694L26.0904 2.3296L26.1258 2.29969L26.7986 2.9815L26.7511 3.02529L20.7268 8.30528C19.9243 9.00904 19.121 9.71269 18.3168 10.4162C18.2913 10.4382 18.2747 10.4689 18.2704 10.5024C18.1075 11.397 17.944 12.2914 17.7797 13.1858L17.3615 15.4566C17.3592 15.4637 17.3563 15.4706 17.353 15.4772Z" fill="#FFD9C2"/>
<path d="M24.9214 1.40391L25.6684 1.91874L23.462 3.85308C22.7283 4.49584 21.9945 5.13919 21.2604 5.78314L19.2292 7.56331C18.6724 8.05132 18.1158 8.53944 17.5595 9.02768C17.5393 9.04617 17.5251 9.07037 17.5188 9.09711C17.426 9.59556 17.3344 10.094 17.244 10.5925L16.9328 12.2907C16.8327 12.8402 16.7324 13.3895 16.6319 13.9385L16.4523 14.9197C16.4494 14.931 16.4458 14.9422 16.4417 14.9532C16.3277 14.8723 16.2165 14.7944 16.1064 14.7146C16.102 14.7092 16.0988 14.7028 16.0971 14.696C16.0954 14.6891 16.0952 14.682 16.0965 14.6751C16.1567 14.3395 16.2176 14.004 16.2792 13.6686C16.3545 13.2575 16.4298 12.8465 16.5051 12.4356C16.5946 11.9479 16.684 11.4602 16.7735 10.9727C16.8679 10.4555 16.9623 9.9383 17.0567 9.4211C17.1367 8.98341 17.217 8.54597 17.2975 8.10876C17.3033 8.08721 17.3157 8.06803 17.3329 8.05393C17.7578 7.67938 18.1843 7.30542 18.6124 6.93206L24.8576 1.46017L24.9214 1.40391Z" fill="#FFD9C2"/>
<path d="M21.4314 16.2406C21.4303 16.2136 21.4354 16.1867 21.4464 16.162C21.4573 16.1373 21.4737 16.1155 21.4944 16.0982C22.3966 15.3094 23.2979 14.52 24.1984 13.7298L28.5653 9.90283L28.6145 9.86117C28.5954 9.94982 28.5791 10.0267 28.5621 10.1029C28.3532 10.9955 27.9923 11.8449 27.4953 12.6137C27.4793 12.6387 27.4599 12.6613 27.4376 12.681C26.5733 13.4405 25.7085 14.1986 24.8435 14.9553C24.6523 15.1226 24.4611 15.2897 24.2699 15.4566C24.2418 15.4823 24.2103 15.5039 24.1764 15.5211C23.5256 15.8282 22.8352 16.0423 22.1254 16.1569C21.908 16.1925 21.6881 16.2132 21.4693 16.2402C21.4567 16.2411 21.444 16.2412 21.4314 16.2406Z" fill="#FFD9C2"/>
<path d="M24.2936 1.07067L17.3339 7.17168C17.1547 7.32881 16.9757 7.48606 16.7968 7.64343C16.7825 7.65635 16.7725 7.67337 16.7681 7.6922C16.6152 8.52295 16.4627 9.35311 16.3107 10.1827C16.1407 11.111 15.9709 12.039 15.8012 12.9669C15.7233 13.392 15.6456 13.8169 15.5682 14.2418C15.5662 14.2515 15.5637 14.2612 15.5608 14.2707C15.5502 14.2628 15.5413 14.2575 15.5339 14.2507C15.4631 14.1873 15.3986 14.1208 15.3267 14.0613C15.3095 14.0477 15.2968 14.0291 15.2905 14.008C15.2841 13.9869 15.2844 13.9644 15.2913 13.9435C15.4485 13.0937 15.6046 12.2439 15.7594 11.3939C15.8996 10.6296 16.0399 9.8652 16.1804 9.10068C16.2918 8.49115 16.4031 7.88162 16.5143 7.27208C16.5451 7.10297 16.5759 6.93385 16.6081 6.76509C16.6121 6.74755 16.6214 6.73166 16.6346 6.71952C17.5184 5.94407 18.4024 5.16911 19.2869 4.39461L21.6413 2.32961C22.2406 1.80458 22.8399 1.27919 23.4392 0.753448C23.448 0.74374 23.4595 0.737113 23.4723 0.734548C23.4851 0.731983 23.4983 0.733616 23.5101 0.739205C23.7768 0.835869 24.0383 0.946511 24.2936 1.07067Z" fill="#FFD9C2"/>
<path d="M14.7118 13.4023C14.641 13.314 14.5783 13.2346 14.5171 13.153C14.5085 13.1373 14.5063 13.1188 14.5107 13.1014C14.556 12.8483 14.6027 12.5951 14.6491 12.3424C14.7388 11.8546 14.8282 11.3668 14.9171 10.8791C15.0087 10.3773 15.1005 9.87551 15.1926 9.37374L15.4443 7.99873C15.5336 7.51239 15.6229 7.02581 15.7124 6.53899C15.7784 6.1775 15.8443 5.81529 15.9099 5.45237C15.915 5.41476 15.9338 5.38038 15.9627 5.35589C16.7694 4.65023 17.5759 3.94397 18.3819 3.23713L20.1958 1.64708C20.6893 1.21461 21.1829 0.781794 21.6764 0.348619C21.6852 0.338834 21.6963 0.331378 21.7087 0.326908C21.721 0.322438 21.7343 0.321091 21.7472 0.322986C22.0326 0.373543 22.318 0.423506 22.6034 0.472876C22.6102 0.474527 22.6168 0.476914 22.6232 0.479996C22.6115 0.491033 22.6019 0.501003 22.592 0.509904L17.6844 4.81222C17.1439 5.28694 16.603 5.76046 16.0618 6.2328C16.0337 6.25616 16.0152 6.28912 16.0098 6.32537C15.8936 6.96623 15.7766 7.60626 15.6585 8.24546C15.5438 8.87256 15.4296 9.49966 15.3158 10.1268C15.1761 10.8913 15.0358 11.6557 14.8948 12.42C14.837 12.7345 14.7795 13.049 14.7224 13.3635C14.7199 13.3734 14.7167 13.3823 14.7118 13.4023Z" fill="#FFD9C2"/>
<path d="M13.2024 10.5992C13.1767 10.5249 13.1571 10.4486 13.1436 10.371C13.1376 10.3123 13.1585 10.2507 13.1695 10.1905C13.2849 9.55889 13.4006 8.92717 13.5165 8.29532C13.6283 7.68627 13.7401 7.07697 13.8518 6.46744C13.9634 5.85791 14.0754 5.24577 14.1878 4.63102C14.2503 4.28709 14.3134 3.94292 14.3772 3.59852C14.3826 3.57276 14.3935 3.54848 14.409 3.52731C15.1177 2.55862 16.0341 1.76278 17.0903 1.19884C17.1041 1.19137 17.1183 1.1846 17.1321 1.17784C17.1357 1.17753 17.1394 1.17753 17.1431 1.17784C17.1232 1.19564 17.1077 1.21095 17.09 1.22555C16.2433 1.96776 15.3966 2.70985 14.55 3.45183C14.5271 3.47037 14.5118 3.49674 14.5071 3.52589C14.3766 4.24436 14.245 4.96272 14.1123 5.68096C13.9797 6.3992 13.8485 7.11816 13.7186 7.83782C13.5928 8.52615 13.4667 9.21377 13.3401 9.90068C13.2993 10.1228 13.2587 10.345 13.2184 10.5672C13.2162 10.5779 13.213 10.5885 13.2106 10.5989L13.2024 10.5992Z" fill="#FFD9C2"/>
<path d="M24.6929 15.2451C25.5157 14.5243 26.3384 13.8032 27.161 13.0819C26.5019 13.9724 25.6602 14.7102 24.6929 15.2451Z" fill="#FFD9C2"/>
<g clip-path="url(#clip3_1146_108828)" filter="url(#filter0_d_1146_108828)">
<path d="M20.9544 2.61665L20.8784 2.87493V10.3694L20.9544 10.4453L24.4333 8.38893L20.9544 2.61665Z" fill="#BA4E0F"/>
<path d="M20.9545 2.61665L17.4756 8.38893L20.9545 10.4453V6.8077V2.61665Z" fill="url(#paint0_linear_1146_108828)"/>
<path d="M20.9544 11.104L20.9116 11.1562V13.8259L20.9544 13.951L24.4354 9.04869L20.9544 11.104Z" fill="#582305"/>
<path d="M20.9545 13.9509V11.1039L17.4756 9.04861L20.9545 13.9509Z" fill="url(#paint1_linear_1146_108828)"/>
<path d="M20.9541 10.4453L24.4329 8.38897L20.9541 6.80774V10.4453Z" fill="#2A1403"/>
<path d="M17.4756 8.38897L20.9544 10.4453V6.80774L17.4756 8.38897Z" fill="#582305"/>
</g>
</g>
</g>
<rect x="13.0618" y="0.389944" width="15.9701" height="15.9701" rx="7.98506" stroke="#FFB184" stroke-width="0.404888"/>
<defs>
<filter id="filter0_d_1146_108828" x="11.4018" y="-3.45657" width="19.1066" height="23.4835" filterUnits="userSpaceOnUse" color-interpolation-filters="sRGB">
<feFlood flood-opacity="0" result="BackgroundImageFix"/>
<feColorMatrix in="SourceAlpha" type="matrix" values="0 0 0 0 0 0 0 0 0 0 0 0 0 0 0 0 0 0 127 0" result="hardAlpha"/>
<feOffset/>
<feGaussianBlur stdDeviation="3.03666"/>
<feColorMatrix type="matrix" values="0 0 0 0 1 0 0 0 0 0.505882 0 0 0 0 0.231373 0 0 0 1 0"/>
<feBlend mode="normal" in2="BackgroundImageFix" result="effect1_dropShadow_1146_108828"/>
<feBlend mode="normal" in="SourceGraphic" in2="effect1_dropShadow_1146_108828" result="shape"/>
</filter>
<linearGradient id="paint0_linear_1146_108828" x1="20.9545" y1="2.61665" x2="15.1441" y2="5.19864" gradientUnits="userSpaceOnUse">
<stop stop-color="#FF813B"/>
<stop offset="1" stop-color="#82889D"/>
</linearGradient>
<linearGradient id="paint1_linear_1146_108828" x1="20.9545" y1="9.04861" x2="16.327" y2="12.3324" gradientUnits="userSpaceOnUse">
<stop stop-color="#FF813B"/>
<stop offset="1" stop-color="#82889D"/>
</linearGradient>
<clipPath id="clip0_1146_108828">
<rect width="7.32566" height="11.599" fill="white" transform="translate(5.10254 2.23438)"/>
</clipPath>
<clipPath id="clip1_1146_108828">
<rect x="12.8594" y="0.1875" width="16.375" height="16.375" rx="8.1875" fill="white"/>
</clipPath>
<clipPath id="clip2_1146_108828">
<rect width="20.2444" height="20.2444" fill="white" transform="translate(10.835 -1.83691)"/>
</clipPath>
<clipPath id="clip3_1146_108828">
<rect width="6.9598" height="11.3369" fill="white" transform="translate(17.4751 2.61674)"/>
</clipPath>
</defs>
</svg>
