<svg width="30" height="17" viewBox="0 0 30 17" fill="none" xmlns="http://www.w3.org/2000/svg">
<rect x="0.393066" y="0.520844" width="16.375" height="16.375" rx="8.1875" fill="white"/>
<rect x="0.502913" y="0.63069" width="16.1553" height="16.1553" rx="8.07765" stroke="#103554" stroke-opacity="0.2" stroke-width="0.219692"/>
<path d="M5.50554 8.15889L5.42104 8.28564C4.44932 9.80658 4.66057 11.7923 5.97027 13.0597C6.6885 13.8202 7.70246 14.2004 8.71642 14.2004C8.71642 14.2004 8.71642 14.2004 5.50554 8.15889Z" fill="#00A3FF"/>
<path opacity="0.6" d="M8.71675 9.97565L5.50586 8.11671C8.71675 14.2005 8.71675 14.2005 8.71675 14.2005C8.71675 12.8908 8.71675 11.3699 8.71675 9.97565Z" fill="#00A3FF"/>
<path opacity="0.6" d="M11.9272 8.15881L12.0117 8.28556C12.9834 9.80651 12.7722 11.7922 11.4625 13.0596C10.702 13.8201 9.73027 14.2004 8.71631 14.2004C8.71631 14.2004 8.71631 14.2004 11.9272 8.15881Z" fill="#00A3FF"/>
<path opacity="0.2" d="M8.71631 9.97565L11.9272 8.11671C8.71631 14.2005 8.71631 14.2005 8.71631 14.2005C8.71631 12.8908 8.71631 11.3699 8.71631 9.97565Z" fill="#00A3FF"/>
<path opacity="0.2" d="M8.71631 5.87761V9.04625L11.5047 7.48305L8.71631 5.87761Z" fill="#00A3FF"/>
<path opacity="0.6" d="M8.71614 5.87761L5.92773 7.48305L8.71614 9.04625V5.87761Z" fill="#00A3FF"/>
<path d="M8.71614 3.21602L5.92773 7.48312L8.71614 5.87768V3.21602Z" fill="#00A3FF"/>
<path opacity="0.6" d="M8.71631 5.87768L11.5047 7.48312L8.71631 3.21602V5.87768Z" fill="#00A3FF"/>
<g clip-path="url(#clip0_1146_108879)">
<rect x="12.6743" y="0.520844" width="16.375" height="16.375" rx="8.1875" fill="white"/>
<g clip-path="url(#clip1_1146_108879)">
<path d="M20.3286 0.605428C20.2702 0.659189 20.2132 0.714019 20.1537 0.766C19.253 1.55592 18.3519 2.34573 17.4505 3.13541C16.6697 3.81971 15.8891 4.50401 15.1088 5.1883C15.0937 5.20225 15.0833 5.22053 15.079 5.24064C14.9881 5.7296 14.898 6.21867 14.8085 6.70786C14.7044 7.2749 14.6005 7.8423 14.4966 8.41006C14.3906 8.99016 14.2844 9.57014 14.1779 10.15C14.0835 10.667 13.9885 11.184 13.8929 11.7012C13.841 11.9861 13.7892 12.2697 13.7375 12.5522L13.7304 12.5846C13.6915 12.5134 13.6596 12.4535 13.6242 12.3952C13.6114 12.3751 13.6027 12.3527 13.5987 12.3292C13.5947 12.3057 13.5954 12.2816 13.6008 12.2584C13.7085 11.6817 13.8147 11.1047 13.9195 10.5274C14.02 9.97816 14.1205 9.42891 14.2208 8.87967C14.3244 8.315 14.4279 7.75033 14.5313 7.18566L14.7894 5.77683C14.8722 5.32301 14.9549 4.86882 15.0372 4.41429C15.0431 4.39255 15.0554 4.37315 15.0726 4.35874C15.65 3.85246 16.2273 3.34654 16.8047 2.84097L18.6954 1.18398C18.8575 1.04157 19.019 0.899157 19.1822 0.756743C19.2021 0.738644 19.2266 0.726338 19.253 0.721139C19.5806 0.661644 19.9118 0.624178 20.2443 0.608989C20.2563 0.607442 20.2681 0.605063 20.2798 0.601868L20.3286 0.605428Z" fill="#FFD9C2"/>
<path d="M19.0692 16.4529C18.8816 16.4059 18.6996 16.3593 18.5169 16.3151C18.4872 16.3076 18.4833 16.2948 18.4882 16.2674C18.661 15.3282 18.8332 14.389 19.0048 13.4497C19.0639 13.1254 19.1227 12.801 19.1839 12.4774C19.1903 12.4533 19.2041 12.4317 19.2232 12.4158C19.6717 12.0206 20.1216 11.626 20.5729 11.232L22.3786 9.65049C23.1634 8.96216 23.9482 8.27382 24.7331 7.58549L27.6958 4.98929C27.7022 4.98359 27.7089 4.97896 27.7195 4.97113C27.728 4.98537 27.7362 4.99747 27.7429 5.01065C27.9031 5.3343 28.0424 5.668 28.16 6.00968C28.1661 6.02267 28.1673 6.03749 28.1632 6.05129C28.1592 6.06509 28.1502 6.07689 28.138 6.08445C27.0581 7.0296 25.9787 7.97535 24.8998 8.92169L22.1552 11.3278C21.3118 12.0669 20.4685 12.8064 19.6251 13.5462C19.6096 13.5598 19.5988 13.578 19.5943 13.5982C19.5159 14.02 19.4384 14.442 19.3617 14.8643L19.094 16.3276C19.0855 16.3657 19.0784 16.4059 19.0692 16.4529Z" fill="#FFD9C2"/>
<path d="M20.0521 16.5839L19.3829 16.5091C19.3978 16.4262 19.4112 16.3514 19.4251 16.2763C19.5313 15.6948 19.6375 15.1132 19.7437 14.5317C19.7865 14.2971 19.829 14.0621 19.8736 13.8275C19.8787 13.8033 19.8911 13.7813 19.909 13.7645C20.9641 12.8388 22.0197 11.9131 23.0757 10.9874L28.2634 6.4394C28.2687 6.43477 28.2743 6.43121 28.2853 6.42267C28.3083 6.5099 28.3317 6.59285 28.3522 6.67617C28.436 7.01709 28.4982 7.36302 28.5385 7.71187C28.5426 7.73156 28.5412 7.75203 28.5343 7.77092C28.5274 7.78982 28.5154 7.80638 28.4995 7.81868C27.6708 8.54309 26.8422 9.26928 26.0137 9.99726L20.8569 14.5189C20.6968 14.6592 20.5364 14.7987 20.3775 14.9401C20.3614 14.9551 20.3504 14.9748 20.346 14.9963C20.2515 15.5104 20.1571 16.0247 20.0627 16.539C20.0602 16.5483 20.057 16.5604 20.0521 16.5839Z" fill="#FFD9C2"/>
<path d="M18.1094 16.1923L17.6013 16.0032C17.6286 15.8522 17.6548 15.707 17.6813 15.5617L17.9426 14.1376C18.0522 13.5409 18.1617 12.9442 18.2712 12.3474C18.3451 11.9439 18.4193 11.5404 18.4939 11.1369C18.4984 11.1154 18.5094 11.0957 18.5254 11.0807C19.2692 10.4275 20.0134 9.77474 20.7581 9.12248L26.9038 3.73426C26.9102 3.72856 26.9169 3.72322 26.9279 3.71432C27.1404 3.98991 27.3345 4.27941 27.5089 4.58091L21.0732 10.2212C20.3545 10.8514 19.6355 11.4811 18.9163 12.1103C18.8695 12.148 18.8383 12.2018 18.8285 12.2613C18.7074 12.9356 18.5842 13.6093 18.4589 14.2825C18.3526 14.8624 18.2464 15.4425 18.1402 16.0228C18.131 16.0769 18.1207 16.1314 18.1094 16.1923Z" fill="#FFD9C2"/>
<path d="M28.5728 8.11846C28.577 8.23489 28.582 8.33956 28.5844 8.44423C28.5931 8.85822 28.5694 9.27226 28.5136 9.68252C28.5062 9.7402 28.4984 9.79788 28.4874 9.8552C28.4831 9.87404 28.4731 9.89107 28.4588 9.90398C28.0603 10.2543 27.6615 10.6041 27.2624 10.9532L23.2194 14.4975C22.5241 15.1052 21.8296 15.7134 21.1362 16.3222C21.1126 16.3423 21.0975 16.3705 21.0937 16.4013C21.0834 16.4643 21.071 16.5266 21.0583 16.5949H20.3027C20.3325 16.4312 20.3608 16.2745 20.3898 16.1157C20.4479 15.7986 20.5069 15.4815 20.5668 15.1644C20.5709 15.1441 20.581 15.1256 20.5959 15.1113C21.3259 14.4705 22.0562 13.8296 22.7868 13.1888L28.514 8.17116L28.5728 8.11846Z" fill="#FFD9C2"/>
<path d="M17.168 15.8106C17.0303 15.7365 16.8957 15.6646 16.7622 15.5909C16.7569 15.5856 16.7528 15.5791 16.7504 15.5719C16.7479 15.5648 16.7471 15.5571 16.7481 15.5496C16.8068 15.2221 16.8674 14.8952 16.9272 14.5684L17.2105 13.0125C17.3103 12.4666 17.4104 11.9201 17.5107 11.373C17.6051 10.8508 17.7005 10.3294 17.7968 9.80891C17.8003 9.77826 17.8149 9.74997 17.8379 9.72951C18.4952 9.15464 19.1523 8.57905 19.8092 8.00275L25.9054 2.66294L25.9408 2.63304L26.6135 3.31484L26.5661 3.35863L20.5418 8.63863C19.7393 9.34239 18.9359 10.046 18.1317 10.7496C18.1062 10.7715 18.0897 10.8022 18.0853 10.8357C17.9225 11.7303 17.7589 12.6248 17.5946 13.5191L17.1765 15.7899C17.1741 15.797 17.1713 15.8039 17.168 15.8106Z" fill="#FFD9C2"/>
<path d="M24.7363 1.73726L25.4834 2.25208L23.2769 4.18642C22.5433 4.82918 21.8094 5.47253 21.0754 6.11648L19.0442 7.89666C18.4873 8.38466 17.9308 8.87278 17.3744 9.36102C17.3542 9.37951 17.34 9.40371 17.3337 9.43045C17.2409 9.9289 17.1494 10.4273 17.059 10.9258L16.7477 12.6241C16.6477 13.1736 16.5473 13.7228 16.4468 14.2718L16.2673 15.253C16.2643 15.2644 16.2608 15.2755 16.2567 15.2865C16.1427 15.2057 16.0315 15.1277 15.9214 15.048C15.9169 15.0425 15.9137 15.0362 15.912 15.0293C15.9103 15.0225 15.9101 15.0154 15.9115 15.0084C15.9716 14.6728 16.0325 14.3373 16.0942 14.0019C16.1694 13.5908 16.2447 13.1799 16.32 12.769C16.4095 12.2812 16.499 11.7936 16.5884 11.306C16.6828 10.7888 16.7772 10.2716 16.8717 9.75444C16.9517 9.31676 17.0319 8.87931 17.1124 8.4421C17.1182 8.42055 17.1306 8.40138 17.1478 8.38727C17.5727 8.01272 17.9992 7.63877 18.4274 7.26541L24.6726 1.79351L24.7363 1.73726Z" fill="#FFD9C2"/>
<path d="M21.2464 16.5739C21.2453 16.5469 21.2504 16.52 21.2613 16.4953C21.2722 16.4706 21.2887 16.4488 21.3094 16.4315C22.2115 15.6428 23.1128 14.8533 24.0133 14.0632L28.3802 10.2362L28.4294 10.1945C28.4103 10.2832 28.394 10.3601 28.377 10.4363C28.1682 11.3288 27.8073 12.1783 27.3103 12.947C27.2942 12.972 27.2748 12.9947 27.2526 13.0143C26.3882 13.7738 25.5235 14.532 24.6584 15.2887C24.4672 15.456 24.276 15.6231 24.0848 15.79C24.0567 15.8156 24.0253 15.8373 23.9913 15.8544C23.3405 16.1616 22.6501 16.3756 21.9403 16.4903C21.7229 16.5259 21.503 16.5465 21.2842 16.5736C21.2716 16.5744 21.259 16.5746 21.2464 16.5739Z" fill="#FFD9C2"/>
<path d="M24.1085 1.40402L17.1488 7.50503C16.9697 7.66216 16.7906 7.8194 16.6117 7.97677C16.5974 7.98969 16.5874 8.00672 16.5831 8.02555C16.4301 8.85629 16.2776 9.68645 16.1256 10.516C15.9557 11.4443 15.7858 12.3724 15.6161 13.3002C15.5382 13.7253 15.4606 14.1503 15.3832 14.5752C15.3812 14.5849 15.3787 14.5945 15.3757 14.604C15.3651 14.5962 15.3562 14.5908 15.3488 14.5841C15.278 14.5207 15.2136 14.4541 15.1417 14.3946C15.1244 14.3811 15.1117 14.3625 15.1054 14.3414C15.0991 14.3203 15.0994 14.2977 15.1063 14.2768C15.2635 13.4271 15.4195 12.5772 15.5743 11.7272C15.7145 10.963 15.8549 10.1985 15.9953 9.43402C16.1067 8.82449 16.218 8.21496 16.3292 7.60543C16.36 7.43631 16.3908 7.26719 16.423 7.09843C16.4271 7.08089 16.4363 7.065 16.4496 7.05286C17.3333 6.27742 18.2174 5.50245 19.1018 4.72796L21.4563 2.66296C22.0556 2.13792 22.6549 1.61254 23.2542 1.08679C23.2629 1.07708 23.2745 1.07046 23.2872 1.06789C23.3 1.06533 23.3132 1.06696 23.325 1.07255C23.5917 1.16921 23.8533 1.27985 24.1085 1.40402Z" fill="#FFD9C2"/>
<path d="M14.5267 13.7356C14.4559 13.6473 14.3933 13.5679 14.332 13.4864C14.3235 13.4706 14.3212 13.4522 14.3256 13.4348C14.3709 13.1816 14.4177 12.9285 14.4641 12.6757C14.5538 12.1879 14.6431 11.7002 14.7321 11.2124C14.8237 10.7106 14.9155 10.2089 15.0075 9.70708L15.2593 8.33208C15.3485 7.84573 15.4378 7.35915 15.5273 6.87233C15.5934 6.51084 15.6592 6.14864 15.7249 5.78572C15.73 5.7481 15.7488 5.71372 15.7776 5.68923C16.5844 4.98357 17.3908 4.27732 18.1969 3.57047L20.0107 1.98042C20.5043 1.54796 20.9978 1.11514 21.4914 0.681963C21.5002 0.672178 21.5112 0.664722 21.5236 0.660252C21.5359 0.655781 21.5492 0.654435 21.5622 0.656329C21.8476 0.706886 22.1329 0.756849 22.4183 0.806219C22.4251 0.807871 22.4318 0.810257 22.4381 0.813339C22.4264 0.824376 22.4169 0.834346 22.407 0.843247L17.4994 5.14557C16.9589 5.62028 16.418 6.09381 15.8767 6.56615C15.8487 6.5895 15.8301 6.62247 15.8247 6.65871C15.7086 7.29958 15.5915 7.93961 15.4735 8.57881C15.3588 9.2059 15.2445 9.833 15.1308 10.4601C14.991 11.2246 14.8507 11.989 14.7098 12.7533C14.6519 13.0678 14.5945 13.3823 14.5374 13.6968C14.5349 13.7068 14.5317 13.7157 14.5267 13.7356Z" fill="#FFD9C2"/>
<path d="M13.0174 10.9326C12.9917 10.8582 12.972 10.7819 12.9586 10.7043C12.9526 10.6456 12.9735 10.584 12.9844 10.5238C13.0999 9.89223 13.2155 9.26051 13.3314 8.62867C13.4433 8.01961 13.5551 7.41032 13.6667 6.80078C13.7783 6.19125 13.8903 5.57911 14.0027 4.96436C14.0653 4.62043 14.1284 4.27626 14.1921 3.93186C14.1976 3.90611 14.2084 3.88182 14.224 3.86065C14.9326 2.89196 15.849 2.09613 16.9053 1.53219C16.9191 1.52471 16.9332 1.51795 16.947 1.51118C16.9507 1.51088 16.9544 1.51088 16.958 1.51118C16.9382 1.52898 16.9226 1.54429 16.9049 1.55889C16.0582 2.3011 15.2116 3.0432 14.3649 3.78517C14.342 3.80372 14.3268 3.83008 14.3221 3.85923C14.1915 4.57771 14.0599 5.29607 13.9273 6.01431C13.7946 6.73255 13.6634 7.4515 13.5336 8.17116C13.4078 8.8595 13.2816 9.54712 13.1551 10.234C13.1143 10.4562 13.0737 10.6784 13.0333 10.9005C13.0312 10.9112 13.028 10.9219 13.0255 10.9322L13.0174 10.9326Z" fill="#FFD9C2"/>
<path d="M24.5078 15.5785C25.3307 14.8576 26.1534 14.1365 26.976 13.4152C26.3169 14.3058 25.4752 15.0435 24.5078 15.5785Z" fill="#FFD9C2"/>
<g clip-path="url(#clip2_1146_108879)" filter="url(#filter0_d_1146_108879)">
<path d="M20.7693 2.95001L20.6934 3.20829V10.7028L20.7693 10.7786L24.2482 8.72229L20.7693 2.95001Z" fill="#BA4E0F"/>
<path d="M20.7694 2.94997L17.2905 8.72225L20.7694 10.7786V7.14101V2.94997Z" fill="url(#paint0_linear_1146_108879)"/>
<path d="M20.7694 11.4373L20.7266 11.4895V14.1593L20.7694 14.2843L24.2503 9.38203L20.7694 11.4373Z" fill="#582305"/>
<path d="M20.7694 14.2843V11.4373L17.2905 9.38197L20.7694 14.2843Z" fill="url(#paint1_linear_1146_108879)"/>
<path d="M20.769 10.7786L24.2479 8.72232L20.769 7.14108V10.7786Z" fill="#2A1403"/>
<path d="M17.2905 8.72232L20.7693 10.7786V7.14108L17.2905 8.72232Z" fill="#582305"/>
</g>
</g>
</g>
<rect x="12.8768" y="0.723287" width="15.9701" height="15.9701" rx="7.98506" stroke="#FFB184" stroke-width="0.404888"/>
<defs>
<filter id="filter0_d_1146_108879" x="11.2167" y="-3.12321" width="19.1066" height="23.4835" filterUnits="userSpaceOnUse" color-interpolation-filters="sRGB">
<feFlood flood-opacity="0" result="BackgroundImageFix"/>
<feColorMatrix in="SourceAlpha" type="matrix" values="0 0 0 0 0 0 0 0 0 0 0 0 0 0 0 0 0 0 127 0" result="hardAlpha"/>
<feOffset/>
<feGaussianBlur stdDeviation="3.03666"/>
<feColorMatrix type="matrix" values="0 0 0 0 1 0 0 0 0 0.505882 0 0 0 0 0.231373 0 0 0 1 0"/>
<feBlend mode="normal" in2="BackgroundImageFix" result="effect1_dropShadow_1146_108879"/>
<feBlend mode="normal" in="SourceGraphic" in2="effect1_dropShadow_1146_108879" result="shape"/>
</filter>
<linearGradient id="paint0_linear_1146_108879" x1="20.7694" y1="2.94997" x2="14.959" y2="5.53195" gradientUnits="userSpaceOnUse">
<stop stop-color="#FF813B"/>
<stop offset="1" stop-color="#82889D"/>
</linearGradient>
<linearGradient id="paint1_linear_1146_108879" x1="20.7694" y1="9.38197" x2="16.142" y2="12.6658" gradientUnits="userSpaceOnUse">
<stop stop-color="#FF813B"/>
<stop offset="1" stop-color="#82889D"/>
</linearGradient>
<clipPath id="clip0_1146_108879">
<rect x="12.6743" y="0.520844" width="16.375" height="16.375" rx="8.1875" fill="white"/>
</clipPath>
<clipPath id="clip1_1146_108879">
<rect width="20.2444" height="20.2444" fill="white" transform="translate(10.6499 -1.50357)"/>
</clipPath>
<clipPath id="clip2_1146_108879">
<rect width="6.9598" height="11.3369" fill="white" transform="translate(17.29 2.9501)"/>
</clipPath>
</defs>
</svg>
