<svg width="44" height="26" viewBox="0 0 44 26" fill="none" xmlns="http://www.w3.org/2000/svg">
<path d="M0.9375 12.8714C0.9375 6.24401 6.31008 0.871429 12.9375 0.871429C19.5649 0.871429 24.9375 6.24401 24.9375 12.8714C24.9375 19.4988 19.5649 24.8714 12.9375 24.8714C6.31008 24.8714 0.9375 19.4988 0.9375 12.8714Z" fill="white"/>
<g clip-path="url(#clip0_1146_216711)">
<path d="M12.9356 3.87143L12.8184 4.25872V15.497L12.9356 15.6107L18.3024 12.5272L12.9356 3.87143Z" fill="#343434"/>
<path d="M12.9357 3.87143L7.56885 12.5272L12.9357 15.6108V10.156V3.87143Z" fill="#8C8C8C"/>
<path d="M12.9357 16.5985L12.8696 16.6768V20.6801L12.9357 20.8676L18.3057 13.5165L12.9357 16.5985Z" fill="#3C3C3B"/>
<path d="M12.9357 20.8676V16.5984L7.56885 13.5164L12.9357 20.8676Z" fill="#8C8C8C"/>
<path d="M12.9355 15.6107L18.3023 12.5272L12.9355 10.1561V15.6107Z" fill="#141414"/>
<path d="M7.56885 12.5272L12.9356 15.6107V10.1561L7.56885 12.5272Z" fill="#393939"/>
</g>
<mask id="mask0_1146_216711" style="mask-type:luminance" maskUnits="userSpaceOnUse" x="18" y="0" width="25" height="25">
<path d="M42.9375 12.8714C42.9375 6.24401 37.5649 0.871429 30.9375 0.871429C24.3101 0.871429 18.9375 6.24401 18.9375 12.8714C18.9375 19.4988 24.3101 24.8714 30.9375 24.8714C37.5649 24.8714 42.9375 19.4988 42.9375 12.8714Z" fill="white"/>
</mask>
<g mask="url(#mask0_1146_216711)">
<path d="M42.9375 12.8714C42.9375 6.24401 37.5649 0.871429 30.9375 0.871429C24.3101 0.871429 18.9375 6.24401 18.9375 12.8714C18.9375 19.4988 24.3101 24.8714 30.9375 24.8714C37.5649 24.8714 42.9375 19.4988 42.9375 12.8714Z" fill="white"/>
<mask id="mask1_1146_216711" style="mask-type:luminance" maskUnits="userSpaceOnUse" x="16" y="-5" width="30" height="36">
<path d="M45.1213 -4.52945H16.6641V30.0991H45.1213V-4.52945Z" fill="white"/>
</mask>
<g mask="url(#mask1_1146_216711)">
<path d="M30.2419 1.08026C30.1563 1.15906 30.0727 1.23942 29.9856 1.3156C28.6654 2.47335 27.3448 3.63092 26.0236 4.78833C24.8792 5.79126 23.7351 6.7942 22.5914 7.79715C22.5694 7.81759 22.5542 7.84438 22.5478 7.87386C22.4147 8.59049 22.2825 9.30729 22.1514 10.0243C21.9988 10.8554 21.8464 11.687 21.6942 12.5191C21.5389 13.3693 21.3832 14.2194 21.2272 15.0693C21.0888 15.8269 20.9496 16.5848 20.8095 17.3428C20.7333 17.7603 20.6574 18.1761 20.5816 18.5901L20.5713 18.6375C20.5142 18.533 20.4675 18.4454 20.4156 18.3599C20.3968 18.3305 20.3841 18.2976 20.3783 18.2632C20.3724 18.2287 20.3734 18.1935 20.3813 18.1594C20.5391 17.3141 20.6948 16.4684 20.8484 15.6224C20.9958 14.8174 21.143 14.0124 21.29 13.2074C21.4419 12.3798 21.5935 11.5522 21.7451 10.7246L22.1234 8.65972C22.2448 7.99458 22.3659 7.32891 22.4866 6.66271C22.4952 6.63085 22.5133 6.60243 22.5385 6.5813C23.3847 5.83928 24.2309 5.09776 25.0771 4.35677L27.8481 1.92822C28.0858 1.71949 28.3224 1.51076 28.5616 1.30204C28.5909 1.27551 28.6268 1.25747 28.6654 1.24985C29.1456 1.16265 29.631 1.10774 30.1184 1.08548C30.1359 1.08321 30.1533 1.07973 30.1703 1.07504L30.2419 1.08026Z" fill="#CAE4FC"/>
<path d="M28.3962 24.3069C28.1212 24.238 27.8544 24.1695 27.5867 24.1049C27.5431 24.094 27.5374 24.0751 27.5446 24.0349C27.7979 22.6584 28.0503 21.2819 28.3017 19.9052C28.3884 19.4298 28.4746 18.9546 28.5643 18.4802C28.5737 18.4448 28.5938 18.4133 28.6219 18.39C29.2792 17.8107 29.9386 17.2323 30.6001 16.6548L33.2466 14.3369C34.3968 13.3281 35.5471 12.3192 36.6974 11.3103L41.0397 7.50521C41.0491 7.49687 41.059 7.49008 41.0745 7.47861C41.0869 7.49948 41.099 7.51721 41.1087 7.53653C41.3436 8.01088 41.5478 8.49997 41.7201 9.00075C41.7291 9.0198 41.7308 9.04152 41.7248 9.06174C41.7189 9.08196 41.7058 9.09927 41.6879 9.11034C40.1051 10.4956 38.5231 11.8817 36.9419 13.2687L32.9191 16.7952C31.6831 17.8785 30.447 18.9624 29.2109 20.0467C29.1882 20.0666 29.1724 20.0933 29.1658 20.1229C29.0509 20.7411 28.9372 21.3595 28.8248 21.9784L28.4325 24.1231C28.4201 24.1789 28.4097 24.238 28.3962 24.3069Z" fill="#CAE4FC"/>
<path d="M29.8367 24.4992L28.856 24.3895C28.8777 24.2678 28.8975 24.1584 28.9177 24.0483C29.0734 23.1958 29.2291 22.3436 29.3847 21.4913C29.4475 21.1475 29.5098 20.803 29.5752 20.4592C29.5826 20.4238 29.6007 20.3914 29.6271 20.3667C31.1735 19.01 32.7205 17.6533 34.2683 16.2966L41.8715 9.63082C41.8794 9.62405 41.8877 9.61882 41.9037 9.60629C41.9374 9.73414 41.9716 9.85572 42.0018 9.97783C42.1247 10.4775 42.2159 10.9845 42.2748 11.4958C42.2809 11.5247 42.2787 11.5547 42.2687 11.5824C42.2586 11.6101 42.2409 11.6343 42.2178 11.6524C41.0031 12.7141 39.7887 13.7784 38.5744 14.8454L31.0162 21.4724C30.7817 21.6781 30.5466 21.8826 30.3136 22.0898C30.2901 22.1119 30.274 22.1407 30.2674 22.1724C30.129 22.9257 29.9907 23.6794 29.8523 24.4333C29.8487 24.4469 29.844 24.4646 29.8367 24.4992Z" fill="#CAE4FC"/>
<path d="M26.9888 23.9248L26.2441 23.6477C26.2841 23.4266 26.3225 23.2136 26.3614 23.0007L26.7444 20.9134C26.9049 20.0388 27.0654 19.1643 27.2259 18.2897C27.3342 17.6983 27.443 17.1069 27.5523 16.5155C27.5589 16.4839 27.575 16.4551 27.5985 16.4331C28.6886 15.4757 29.7794 14.519 30.8708 13.563L39.8782 5.66579C39.8876 5.65743 39.8975 5.6496 39.9136 5.63657C40.2251 6.04048 40.5096 6.46479 40.7652 6.90668L31.3327 15.1734C30.2793 16.097 29.2255 17.0199 28.1714 17.9422C28.1029 17.9975 28.057 18.0763 28.0427 18.1634C27.8652 19.1517 27.6847 20.1393 27.501 21.1258C27.3453 21.9757 27.1896 22.8259 27.0339 23.6764C27.0204 23.7558 27.0054 23.8356 26.9888 23.9248Z" fill="#CAE4FC"/>
<path d="M42.3246 12.0914C42.3309 12.262 42.3382 12.4155 42.3418 12.5689C42.3544 13.1756 42.3196 13.7824 42.2379 14.3838C42.227 14.4683 42.2156 14.5528 42.1996 14.6368C42.1932 14.6645 42.1785 14.6894 42.1576 14.7083C41.5736 15.2218 40.9891 15.7344 40.4041 16.2461L34.4785 21.4409C33.4593 22.3315 32.4416 23.2229 31.4252 24.1152C31.3907 24.1446 31.3685 24.186 31.3629 24.2311C31.3479 24.3235 31.3297 24.4147 31.311 24.515H30.2036C30.2472 24.2748 30.2887 24.0452 30.3313 23.8125C30.4164 23.3478 30.5029 22.883 30.5907 22.4183C30.5966 22.3885 30.6115 22.3615 30.6333 22.3405C31.7033 21.4013 32.7737 20.4619 33.8444 19.5227L42.2384 12.1686L42.3246 12.0914Z" fill="#CAE4FC"/>
<path d="M25.6092 23.366C25.4073 23.2574 25.2101 23.1521 25.0145 23.044C25.0066 23.0361 25.0007 23.0266 24.9971 23.0162C24.9935 23.0057 24.9923 22.9944 24.9937 22.9836C25.0799 22.5034 25.1686 22.0244 25.2563 21.5454L25.6714 19.2649C25.8178 18.4649 25.9645 17.6639 26.1115 16.862C26.2499 16.0967 26.3896 15.3326 26.5308 14.5696C26.5359 14.5247 26.5573 14.4833 26.591 14.4533C27.5544 13.6107 28.5176 12.7671 29.4803 11.9224L38.4151 4.09617L38.467 4.05234L39.453 5.05162L39.3834 5.11581L30.554 12.8544C29.3778 13.8859 28.2003 14.9172 27.0217 15.9483C26.9843 15.9805 26.9601 16.0255 26.9537 16.0746C26.715 17.3858 26.4753 18.6967 26.2345 20.0076L25.6216 23.3357C25.6181 23.3461 25.614 23.3561 25.6092 23.366Z" fill="#CAE4FC"/>
<path d="M36.7026 2.73911L37.7974 3.49366L34.5635 6.32872C33.4883 7.27078 32.4128 8.21371 31.3369 9.15751L28.3598 11.7666C27.5437 12.4819 26.728 13.1973 25.9126 13.9129C25.8829 13.94 25.8621 13.9754 25.8529 14.0146C25.717 14.7452 25.5827 15.4757 25.4502 16.2063L24.9941 18.6954C24.8474 19.5007 24.7004 20.3058 24.553 21.1104L24.2899 22.5485C24.2856 22.5652 24.2804 22.5815 24.2744 22.5975C24.1073 22.4791 23.9443 22.3648 23.7829 22.2479C23.7764 22.2399 23.7717 22.2305 23.7692 22.2207C23.7667 22.2106 23.7664 22.2001 23.7684 22.19C23.8566 21.6981 23.9459 21.2064 24.0362 20.7148C24.1465 20.1122 24.2569 19.5099 24.3672 18.9078C24.4984 18.1929 24.6295 17.4781 24.7606 16.7636C24.8989 16.0056 25.0373 15.2475 25.1757 14.4895C25.293 13.848 25.4106 13.2068 25.5286 12.566C25.5371 12.5345 25.5553 12.5064 25.5805 12.4857C26.2032 11.9367 26.8283 11.3887 27.4559 10.8414L36.6091 2.82156L36.7026 2.73911Z" fill="#CAE4FC"/>
<path d="M31.5866 24.4846C31.585 24.445 31.5925 24.4057 31.6086 24.3694C31.6246 24.3331 31.6487 24.3011 31.679 24.276C33.0012 23.1199 34.3222 21.9628 35.642 20.8048L42.0423 15.1957L42.1145 15.1346C42.0866 15.2646 42.0626 15.3773 42.0377 15.4889C41.7317 16.7971 41.2027 18.0421 40.4742 19.1689C40.4507 19.2055 40.4222 19.2387 40.3896 19.2674C39.1228 20.3806 37.8554 21.4918 36.5875 22.6009C36.3074 22.8462 36.027 23.0909 35.7468 23.3355C35.7056 23.3731 35.6596 23.405 35.6098 23.43C34.656 23.8802 33.6441 24.1939 32.6037 24.3619C32.2851 24.4142 31.9629 24.4445 31.6422 24.4841C31.6237 24.4853 31.6051 24.4855 31.5866 24.4846Z" fill="#CAE4FC"/>
<path d="M35.7812 2.25057L25.5807 11.1925C25.3181 11.4228 25.0557 11.6533 24.7935 11.8839C24.7725 11.9029 24.7579 11.9278 24.7515 11.9554C24.5273 13.173 24.3038 14.3897 24.081 15.6056C23.8319 16.9661 23.583 18.3263 23.3343 19.6863C23.2201 20.3092 23.1063 20.9322 22.9928 21.5548C22.9899 21.5691 22.9863 21.5833 22.9819 21.5971C22.9664 21.5857 22.9534 21.5778 22.9425 21.568C22.8387 21.475 22.7443 21.3775 22.6389 21.2903C22.6136 21.2704 22.595 21.2432 22.5858 21.2122C22.5765 21.1812 22.5769 21.1482 22.587 21.1176C22.8174 19.8721 23.0461 18.6265 23.2731 17.3808C23.4786 16.2606 23.6842 15.1403 23.8901 14.0197C24.0533 13.1264 24.2165 12.233 24.3794 11.3397C24.4245 11.0918 24.4697 10.8439 24.5169 10.5966C24.5229 10.5709 24.5364 10.5476 24.5558 10.5298C25.8511 9.39326 27.1468 8.25743 28.4431 7.1223L31.8939 4.09573C32.7723 3.32621 33.6506 2.55618 34.529 1.78563C34.5418 1.7714 34.5588 1.76169 34.5775 1.75793C34.5962 1.75417 34.6156 1.75656 34.6328 1.76475C35.0237 1.90643 35.4071 2.06859 35.7812 2.25057Z" fill="#CAE4FC"/>
<path d="M21.7374 20.3243C21.6337 20.1949 21.5418 20.0785 21.452 19.959C21.4395 19.9359 21.4362 19.9088 21.4427 19.8833C21.5091 19.5124 21.5776 19.1413 21.6456 18.7708C21.7771 18.0559 21.908 17.341 22.0384 16.6261C22.1726 15.8907 22.3072 15.1553 22.4421 14.4199L22.8111 12.4046C22.9419 11.6918 23.0728 10.9786 23.2039 10.2651C23.3008 9.7353 23.3973 9.20442 23.4935 8.67251C23.501 8.61738 23.5285 8.56699 23.5708 8.5311C24.7532 7.49685 25.9352 6.46174 27.1166 5.42574L29.775 3.09528C30.4984 2.46145 31.2218 1.82709 31.9452 1.1922C31.9581 1.17786 31.9743 1.16693 31.9924 1.16038C32.0105 1.15383 32.0299 1.15186 32.049 1.15463C32.4672 1.22873 32.8854 1.30196 33.3037 1.37432C33.3137 1.37674 33.3235 1.38024 33.3328 1.38475C33.3156 1.40093 33.3016 1.41554 33.2871 1.42859L26.0943 7.73428C25.3021 8.43004 24.5093 9.12407 23.7161 9.81636C23.6749 9.85059 23.6477 9.89889 23.6398 9.95202C23.4696 10.8913 23.298 11.8294 23.125 12.7662C22.9569 13.6853 22.7895 14.6044 22.6227 15.5235C22.4179 16.644 22.2123 17.7644 22.0057 18.8846C21.921 19.3456 21.8367 19.8065 21.753 20.2674C21.7494 20.2821 21.7447 20.295 21.7374 20.3243Z" fill="#CAE4FC"/>
<path d="M19.5262 16.2161C19.4885 16.1071 19.4597 15.9953 19.44 15.8816C19.4312 15.7955 19.4618 15.7052 19.4779 15.617C19.6471 14.6913 19.8166 13.7654 19.9865 12.8394C20.1504 11.9467 20.3143 11.0537 20.4779 10.1604C20.6415 9.267 20.8057 8.36981 20.9703 7.4688C21.062 6.96472 21.1546 6.46029 21.248 5.95553C21.2559 5.91777 21.2719 5.88218 21.2947 5.85115C22.3333 4.43139 23.6764 3.26497 25.2245 2.43844C25.2447 2.42748 25.2655 2.41757 25.2857 2.40765C25.2911 2.40721 25.2964 2.40721 25.3018 2.40765C25.2727 2.43374 25.2499 2.45618 25.2239 2.47758C23.983 3.5654 22.7421 4.65304 21.5012 5.74053C21.4677 5.7677 21.4453 5.80635 21.4384 5.84906C21.2471 6.9021 21.0542 7.95497 20.8598 9.00765C20.6654 10.0603 20.473 11.1141 20.2828 12.1689C20.0984 13.1777 19.9135 14.1855 19.728 15.1923C19.6682 15.5179 19.6087 15.8435 19.5495 16.1691C19.5464 16.1848 19.5418 16.2004 19.5381 16.2156L19.5262 16.2161Z" fill="#CAE4FC"/>
<path d="M36.3677 23.0256C37.5738 21.9691 38.7796 20.9123 39.9852 19.8551C39.0191 21.1603 37.7855 22.2416 36.3677 23.0256Z" fill="#CAE4FC"/>
<g filter="url(#filter0_d_1146_216711)">
<path d="M30.8863 4.51669L30.7749 4.89523V15.8795L30.8863 15.9907L35.985 12.9768L30.8863 4.51669Z" fill="#1374B2"/>
<path d="M30.8859 4.51669L25.7871 12.9768L30.8859 15.9908V10.6593V4.51669Z" fill="url(#paint0_linear_1146_216711)"/>
<path d="M30.886 16.9561L30.8232 17.0326V20.9454L30.886 21.1287L35.9879 13.9437L30.886 16.9561Z" fill="#103554"/>
<path d="M30.8859 21.1287V16.9561L25.7871 13.9437L30.8859 21.1287Z" fill="url(#paint1_linear_1146_216711)"/>
<path d="M30.8862 15.9909L35.9849 12.977L30.8862 10.6595V15.9909Z" fill="#061A2E"/>
<path d="M25.7871 12.977L30.8858 15.9909V10.6595L25.7871 12.977Z" fill="#103554"/>
</g>
</g>
</g>
<path d="M30.9382 1.16806H30.9381C24.4746 1.16806 19.2349 6.4078 19.2349 12.8713V12.8714C19.2349 19.335 24.4746 24.5747 30.9381 24.5747H30.9382C37.4018 24.5747 42.6415 19.335 42.6415 12.8714V12.8713C42.6415 6.4078 37.4018 1.16806 30.9382 1.16806Z" stroke="#9EC9EF" stroke-width="1.18685"/>
<defs>
<filter id="filter0_d_1146_216711" x="7.98442" y="-13.286" width="45.8061" height="52.2174" filterUnits="userSpaceOnUse" color-interpolation-filters="sRGB">
<feFlood flood-opacity="0" result="BackgroundImageFix"/>
<feColorMatrix in="SourceAlpha" type="matrix" values="0 0 0 0 0 0 0 0 0 0 0 0 0 0 0 0 0 0 127 0" result="hardAlpha"/>
<feOffset/>
<feGaussianBlur stdDeviation="8.90134"/>
<feColorMatrix type="matrix" values="0 0 0 0 0 0 0 0 0 0.52 0 0 0 0 1 0 0 0 1 0"/>
<feBlend mode="normal" in2="BackgroundImageFix" result="effect1_dropShadow_1146_216711"/>
<feBlend mode="normal" in="SourceGraphic" in2="effect1_dropShadow_1146_216711" result="shape"/>
</filter>
<linearGradient id="paint0_linear_1146_216711" x1="30.8859" y1="4.51669" x2="22.37" y2="8.30096" gradientUnits="userSpaceOnUse">
<stop stop-color="#3C8FCB"/>
<stop offset="1" stop-color="#686F87"/>
</linearGradient>
<linearGradient id="paint1_linear_1146_216711" x1="30.8859" y1="13.9437" x2="24.1037" y2="18.7566" gradientUnits="userSpaceOnUse">
<stop stop-color="#3C8FCB"/>
<stop offset="1" stop-color="#686F87"/>
</linearGradient>
<clipPath id="clip0_1146_216711">
<rect width="10.7368" height="17" fill="white" transform="translate(7.56885 3.87143)"/>
</clipPath>
</defs>
</svg>
