<svg width="173" height="118" viewBox="0 0 173 118" fill="none" xmlns="http://www.w3.org/2000/svg">
<g clip-path="url(#clip0_1227_32759)">
<g filter="url(#filter0_b_1227_32759)">
<path d="M58.9394 117.285C91.2741 117.177 117.399 90.8767 117.29 58.542C117.182 26.2077 90.8815 0.0831447 58.5468 0.191498C26.2123 0.299851 0.0877834 26.6001 0.196137 58.9346C0.30449 91.2693 26.6047 117.394 58.9394 117.285Z" fill="#0756AB" fill-opacity="0.5"/>
</g>
<path opacity="0.2" d="M95.3397 95.1079C115.414 74.8993 115.313 42.2245 95.1047 22.1503C74.8966 2.07606 42.2217 2.1766 22.1475 22.3849L95.3397 95.1079Z" fill="white"/>
<path d="M56.353 35.621C57.1387 35.5406 57.9362 35.4995 58.7434 35.4995C71.5763 35.4995 81.9797 45.9027 81.9797 58.7355C81.9797 68.7429 75.6536 77.2724 66.7824 80.5439L58.8981 91.6317C76.9954 91.548 91.6395 76.8519 91.6395 58.7355C91.6395 41.7241 78.7268 27.7285 62.1681 26.0156L56.353 35.621Z" fill="white"/>
<path d="M57.9976 25.8435C40.1745 26.2403 25.8481 40.8128 25.8481 58.7312C25.8481 75.495 38.3873 89.33 54.5979 91.3689L61.3886 81.8187C60.5206 81.9171 59.6385 81.9675 58.7442 81.9675C45.9113 81.9675 35.5081 71.5641 35.5081 58.7312C35.5081 48.4477 42.1886 39.7244 51.4463 36.6643L57.9976 25.8435Z" fill="white"/>
<path d="M66.7798 80.5415C75.651 77.2705 81.9772 68.7405 81.9772 58.7336H91.6375C91.6375 76.85 76.9928 91.5461 58.896 91.6293L66.7798 80.5415Z" fill="url(#paint0_linear_1227_32759)"/>
<path d="M57.9976 25.8435C40.1746 26.2403 25.8481 40.8128 25.8481 58.7312C25.8481 58.7312 35.5081 58.8702 35.5081 58.7312C35.5081 48.4477 42.1886 39.7244 51.4463 36.6643L57.9976 25.8435Z" fill="url(#paint1_linear_1227_32759)"/>
<path d="M58.6824 85.627L75.1995 62.3667L58.6824 72.1146L42.1738 62.3667L58.6824 85.627Z" fill="white"/>
<path opacity="0.1" d="M58.6855 85.627L75.2031 62.3667L58.6855 72.1146V85.627Z" fill="#0074F0"/>
<path d="M58.6348 69.0307L75.2342 59.2651L58.6348 31.8479L42.0352 59.2651L58.6348 69.0307Z" fill="url(#paint2_linear_1227_32759)"/>
<path d="M58.6348 69.0307L75.2342 59.2651L58.6348 31.8479L42.0352 59.2651L58.6348 69.0307Z" fill="white"/>
<path opacity="0.1" d="M58.6346 69.0302L42.0352 59.2651L58.6346 31.8479V69.0302Z" fill="#0074F0"/>
<path opacity="0.1" d="M58.6346 69.0249V51.4768L42.0352 59.2588L58.6346 69.0249Z" fill="#0074F0"/>
<path opacity="0.1" d="M58.6328 69.0249V51.4768L75.2322 59.2588L58.6328 69.0249Z" fill="#0074F0"/>
</g>
<g filter="url(#filter1_b_1227_32759)">
<rect x="55.5098" width="117.486" height="117.486" rx="58.7431" fill="white"/>
<rect x="56.3299" y="0.82017" width="115.846" height="115.846" rx="57.923" stroke="white" stroke-opacity="0.2" stroke-width="1.64034"/>
<path d="M90.9335 52.7979L90.3026 53.7442C83.0473 65.1004 84.6245 79.9265 94.4034 89.39C99.7661 95.0681 107.337 97.9072 114.908 97.9072C114.908 97.9072 114.908 97.9072 90.9335 52.7979Z" fill="#00A3FF"/>
<path opacity="0.6" d="M114.907 66.3607L90.9326 52.481C114.907 97.9057 114.907 97.9057 114.907 97.9057C114.907 88.1268 114.907 76.7706 114.907 66.3607Z" fill="#00A3FF"/>
<path opacity="0.6" d="M138.879 52.7979L139.51 53.7442C146.765 65.1004 145.188 79.9265 135.409 89.39C129.731 95.0681 122.476 97.9072 114.905 97.9072C114.905 97.9072 114.905 97.9072 138.879 52.7979Z" fill="#00A3FF"/>
<path opacity="0.2" d="M114.905 66.3607L138.879 52.481C114.905 97.9057 114.905 97.9057 114.905 97.9057C114.905 88.1268 114.905 76.7706 114.905 66.3607Z" fill="#00A3FF"/>
<path opacity="0.2" d="M114.905 35.7625V59.4212L135.724 47.7495L114.905 35.7625Z" fill="#00A3FF"/>
<path opacity="0.6" d="M114.905 35.7625L94.0854 47.7495L114.905 59.4212V35.7625Z" fill="#00A3FF"/>
<path d="M114.905 15.8896L94.0854 47.7501L114.905 35.763V15.8896Z" fill="#00A3FF"/>
<path opacity="0.6" d="M114.905 35.763L135.724 47.7501L114.905 15.8896V35.763Z" fill="#00A3FF"/>
</g>
<defs>
<filter id="filter0_b_1227_32759" x="-6.27133" y="-6.27597" width="130.029" height="130.029" filterUnits="userSpaceOnUse" color-interpolation-filters="sRGB">
<feFlood flood-opacity="0" result="BackgroundImageFix"/>
<feGaussianBlur in="BackgroundImageFix" stdDeviation="3.23357"/>
<feComposite in2="SourceAlpha" operator="in" result="effect1_backgroundBlur_1227_32759"/>
<feBlend mode="normal" in="SourceGraphic" in2="effect1_backgroundBlur_1227_32759" result="shape"/>
</filter>
<filter id="filter1_b_1227_32759" x="-16.6651" y="-72.1749" width="261.836" height="261.836" filterUnits="userSpaceOnUse" color-interpolation-filters="sRGB">
<feFlood flood-opacity="0" result="BackgroundImageFix"/>
<feGaussianBlur in="BackgroundImageFix" stdDeviation="36.0875"/>
<feComposite in2="SourceAlpha" operator="in" result="effect1_backgroundBlur_1227_32759"/>
<feBlend mode="normal" in="SourceGraphic" in2="effect1_backgroundBlur_1227_32759" result="shape"/>
</filter>
<linearGradient id="paint0_linear_1227_32759" x1="37.0825" y1="99.9518" x2="73.3116" y2="76.2195" gradientUnits="userSpaceOnUse">
<stop stop-color="#1A82FF" stop-opacity="0.5"/>
<stop offset="1" stop-color="white"/>
</linearGradient>
<linearGradient id="paint1_linear_1227_32759" x1="76.4978" y1="10.7013" x2="41.8337" y2="35.7473" gradientUnits="userSpaceOnUse">
<stop stop-color="#1A82FF" stop-opacity="0.5"/>
<stop offset="1" stop-color="white"/>
</linearGradient>
<linearGradient id="paint2_linear_1227_32759" x1="23.3196" y1="41.7764" x2="52.4007" y2="59.5231" gradientUnits="userSpaceOnUse">
<stop stop-color="#1C313F"/>
<stop offset="1" stop-color="white"/>
</linearGradient>
<clipPath id="clip0_1227_32759">
<rect width="117.486" height="117.486" fill="white"/>
</clipPath>
</defs>
</svg>
